<?xml version="1.0" encoding="UTF-8"?>
<!-- Generator: Adobe Illustrator 19.2.1, SVG Export Plug-In . SVG Version: 6.00 Build 0)  -->
<svg id="layer" enable-background="new 0 0 652 652" version="1.1" viewBox="0 0 652 652" xml:space="preserve" xmlns="http://www.w3.org/2000/svg">
<style type="text/css">
</style>



<g transform="matrix(3.5532 0 0 3.5532 -47.286 -850.57)" stroke-width=".28144" fill="#FD8A15"><path class="st2" d="m79.8 348.2-0.3 0.6 2 0.7c0.5-1.5 0.8-3.1 1-4.8l-2.2-0.3c0 1.2-0.2 2.5-0.5 3.8zm0.6-17.5c-0.7-1.5-1.4-2.9-2.3-4.2l-1.8 1.3c0.8 1.2 1.6 2.5 2.1 3.9zm-5.4-7.9c-1.1-1.1-2.4-2.2-3.7-3.1l-1.2 1.9c1.2 0.8 2.3 1.8 3.4 2.8zm2.8 30.4-0.1 0.2h-0.1c-0.2-0.2-0.4-0.4-0.5-0.6h-0.3v-0.1h-0.2c-0.3-0.4-0.6-0.8-0.9-1.2l-1.7 1.4c0.9 1.3 1.9 2.5 3 3.6l1-1c-0.4 0.7-0.7 1.3-1.2 1.9l-0.2 0.2h-0.4l1.7 1.4c1-1.3 1.9-2.6 2.6-4.1zm-8.9 9.6 1.1 1.9c1.4-0.8 2.6-1.8 3.8-2.9l-1.4-1.7c-1 1-2.2 1.9-3.5 2.7zm63.8-55.4c1.3-0.6 2.6-1.1 4-1.6h0.1l-0.7-2.5h-0.1c-1.5 0.5-3 1-4.4 1.7l-0.1 0.1 1 2.3zm-4.1 2.3h0.2v-0.1l0.2-0.3-1.4-2.1v0.1c-1.3 0.9-2.5 1.8-3.7 2.9l-0.1 0.1 1.6 1.9 0.1-0.1 0.6-0.5v-0.1h0.3v-0.3h0.1v-0.1l0.2-0.1h0.1v-0.2l0.2-0.2h0.1l0.1-0.1h0.1v-0.1h0.1v-0.1l0.3-0.2zm-8.7 9.4 0.1-0.1c0.6-1.1 1.3-2.1 2.1-3.1v-0.1h0.1v-0.1l0.1-0.1h0.1v-0.1l0.1-0.1-1.9-1.7h0.1c-1 1.2-2 2.5-2.8 3.9l-0.1 0.1 2 1.3zm-3.4 8.1v-0.3c0.4-1.4 0.9-2.7 1.4-4v-0.1l-2.3-1v0.1c-0.6 1.5-1.1 3-1.6 4.5v0.2l2.2 0.6zm-1.1 8.6v-2-0.2c0-0.8 0.1-1.5 0.2-2.3v-0.2l-2.5-0.3v0.1c-0.1 0.8-0.2 1.7-0.2 2.6v2.1 0.2zm1.5 8.9v-0.1c-0.4-1.4-0.8-2.9-1-4.3v-0.2l-2.3 0.4h-0.2v0.2c0.2 1.6 0.6 3.1 1.1 4.7v0.2l2.2-0.7zm3 6.7-0.1-0.2v-0.1h-0.1v-0.1l-0.5-1-0.2-0.2v-0.3l-0.3-0.6v-0.1l-2.2 1.1v0.1c0.7 1.4 1.5 2.8 2.3 4.1l0.1 0.1 1.8-1.6v-0.1c-0.3-0.3-0.6-0.7-0.8-1.1zm12.6 11.7h-0.2l-0.2-0.1h-0.5v-0.1h-0.4l-0.1-0.1h-0.1l-0.2-0.1-0.4-0.8h-0.1l-0.6-0.3-1.3 2.2 0.1 0.1c1.4 0.8 2.8 1.6 4.2 2.2h0.1l1-2.4h-0.1zm12.3-39.7v0.6 1.1l2.2 0.1v-2c0-0.9 0-1.8-0.1-2.8zm-72.3 23.3c-0.7-1.3-1.4-2.6-2-4l-2 0.9c0.6 1.4 1.4 2.8 2.1 4.2zm67.8-1.8 1.9 1c0.7-1.4 1.4-2.9 1.9-4.3l-2-0.8c-0.5 1.4-1.1 2.8-1.8 4.1zm0.6-36.8c0.4 0.6 0.7 1.3 0.9 2l2-0.9c-0.6-1.5-1.3-2.9-2-4.2l-1.9 1.1c0.3 0.6 0.6 1.1 0.9 1.7zm-74 18.5v-0.5h-2.2v0.6c0 1.4 0.1 2.7 0.2 4.1l2.1-0.2c0-1.8-0.1-2.9-0.1-4zm76.6 10 2.1 0.6c0.4-1.5 0.7-3.1 1-4.6l-2.1-0.4c-0.3 1.5-0.6 3-1 4.4zm-78.4-15.9 2.2 0.3c0.2-1.5 0.4-2.9 0.8-4.3l-2.1-0.5c0 0.3-0.1 0.6-0.2 0.8-1-0.4-2-0.7-3.1-1l-0.5 2.1c1.1 0.3 2.1 0.6 3.2 1-0.1 0.5-0.2 1-0.3 1.6zm23.2 41.2-1.3 1.9c1.4 0.7 2.8 1.4 4.2 1.9l0.8-2.1c-1.3-0.5-2.5-1.1-3.7-1.7zm55.1-47.2c0.3 1 0.5 1.9 0.7 2.9v0.1c0 0.2 0 0.4 0.1 0.7l2.1-0.4c-0.3-1.5-0.6-3.1-1.1-4.6l-2.1 0.6zm-6.3 35.4c-0.6 0.7-1.1 1.3-1.6 1.9l1.6 1.4c1-1.2 1.9-2.4 2.8-3.7l-1.8-1.3c-0.3 0.8-0.7 1.3-1 1.7zm-5.9 6.5-1.4 1.1 0.6 2.4c1.2-0.9 2.4-1.9 3.5-3l-1.4-1.6c-0.5 0.4-0.9 0.7-1.3 1.1zm-6.2 4.4 1.5-1.9-0.1-0.1c-0.5-0.5-1-0.9-1.5-1.4v-0.1h-0.1v-0.1h-0.1v-0.1h-0.1c-0.4-0.4-0.8-0.8-1.2-1.3l-0.1-0.1-1.7 1.6-0.1 0.1 0.1 0.1c1 1.1 2.1 2.2 3.3 3.1-0.6 0.4-1.3 0.7-1.9 1.1h-0.2l-1 0.5 0.9 2c1.4-0.5 2.7-1.2 4-1.9l-1.1-1.9zm-41.6-2.2h-0.1c-0.7-0.5-1.4-1.1-2.1-1.7l-1.4 1.7c1.2 1 2.4 2 3.7 2.9l1.2-1.9-0.9-0.7zm1.7-37.8v0.8h2.2c0-1.7-0.2-3.4-0.7-5.1l-2.1 0.6c0.4 1.3 0.6 2.5 0.6 3.7zm-5.1 15.9v0.4c0.1 0.6 0.2 1.2 0.2 1.8v0.1 0.2l2.2-0.1c-0.1-1-0.2-2.1-0.4-3.1-0.1-0.6-0.2-1.1-0.4-1.7l-1.3 0.3-0.9-1.2c-0.1 0.1-0.3 0.2-0.4 0.3h-0.3c-0.9 0.7-2 1.3-3 1.7l0.8 2.1c1.2-0.1 2.4-0.4 3.5-0.8zm1.1-24.8h0.9c0.3 0.4 0.5 0.7 0.8 1.1l1.8-1.2c-0.9-1.4-2-2.7-3.3-3.8l-1.4 1.7c0.4 0.3 0.8 0.7 1.1 1.1zm-10.6 27.9h1.5l-0.2-2.2h-1.1-1c-0.4 0-0.7-0.1-1.1-0.1-0.3-1.1-0.6-2.2-0.8-3.4l-2.1 0.5c0.3 1.5 0.7 3 1.2 4.6l0.4-0.1-0.1 0.5c1 0.1 2.1 0.3 3.3 0.2zm14-12.8-0.2 0.6h-0.3v0.1c-0.3 0.6-0.6 1.2-1 1.8l1.8 1.2c0.7-1 1.2-2.1 1.7-3.3 0.2-0.4 0.3-0.9 0.5-1.3l-2.1-0.7zm-30.6-1.2c0.3 1.7 0.9 3.3 1.7 4.8l1.9-1c-0.7-1.3-1.1-2.7-1.4-4.2zm6.7 7.9h-0.5l-1.5 1.6c1.2 1.2 2.5 2.2 4 3.1l1-2c-1-0.6-1.9-1.2-2.8-2z" fill="#FD8A15"/><path class="st2" d="m147 297.7h-1.7c-1 0-2 0-3 0.1-4.4-6.1-10.2-10.9-16.9-14.2-6.6-3.2-14-4.8-21.3-4.5s-14.5 2.5-20.9 6.2c-6.4 3.8-11.8 9.1-15.7 15.5-3.1 0.5-6 1.6-8.7 3.4-2.6 1.8-4.8 4.1-6.4 6.8-7.4 1.2-14.2 5.3-18.9 11.4s-7 13.8-6.5 21.5c0.5 7.8 3.9 15 9.4 20.4 5.5 5.3 12.7 8.4 20.3 8.5h89.3c9.4-0.2 18.4-4.2 25.1-11.2 6.6-6.9 10.4-16.2 10.5-26 0.1-9.7-3.4-19.1-9.9-26.2-6.4-7-15.3-11.2-24.7-11.7zm-1 68.5h-27.9l-0.5-1.8-0.7 0.2h-0.2c-1.1 0.3-2.2 0.6-3.3 0.8l0.1 0.7h-4.4v-0.1c-0.6 0-1.2 0.1-1.8 0.1h-6.9v-0.4l-1.7-0.3h-0.4c-0.7-0.1-1.4-0.3-2.1-0.5l-0.3 1.3h-30.3l-0.5-1.5c-1.1 0.4-2.3 0.8-3.5 1h-0.7l0.1 0.4h-4c-5.9-0.2-11.5-2.7-15.7-6.9s-6.8-10-7.1-16c-0.3-6.1 1.5-12.1 5.3-16.8 3.7-4.7 9-7.8 14.9-8.7-0.3 1.1-0.5 2.2-0.7 3.3l2.2 0.2v-0.3c0.1-0.5 0.2-1 0.4-1.5v-0.1h0.1c0.7-3.1 2.2-5.8 4.5-7.9 2.2-2.1 5.1-3.4 8.1-3.8-0.6 1.3-1.2 2.6-1.7 4l2.1 0.8c0.4-1.2 0.9-2.4 1.5-3.6h0.1c0-0.1 0.1-0.2 0.1-0.3l-1.3-0.7c0.3 0 0.5-0.1 0.8-0.1h0.9c0.3-0.5 0.6-1.1 0.9-1.6l-0.2 1.7c0.9 0.1 1.8 0.3 2.6 0.6h0.5l0.5 0.2h0.2l0.3 0.1 0.9-2.1h-0.3c-1.4-0.5-2.8-0.9-4.2-1.1 0.5-0.8 0.9-1.5 1.4-2.2l0.6-0.8c3.5-5 8.1-9 13.3-11.9 5.3-2.9 11.1-4.4 17.1-4.6s11.9 1.1 17.3 3.7 10.2 6.4 13.9 11.2l0.4 0.5c0.9 1.2 1.8 2.5 2.6 3.9 2-0.4 4.1-0.6 6.1-0.6h1.4c7.8 0.4 15.1 3.8 20.4 9.7 5.3 5.8 8.3 13.6 8.2 21.6s-3.2 15.7-8.6 21.4c-5.6 5.3-13 8.6-20.8 8.8z" fill="#FD8A15"/></g>
</svg>
