<?xml version="1.0" encoding="UTF-8"?>
<svg width="317.5mm" height="146.94mm" version="1.1" viewBox="-45.101 -44.95 390.87 187.23" xml:space="preserve" xmlns="http://www.w3.org/2000/svg"><style type="text/css">.st1{fill-rule:evenodd;clip-rule:evenodd;fill:#f90}</style><g transform="matrix(1.0137,0,0,1.0137,-6.6613,-42.973)" fill="#ec912d" stroke-width=".98644"><path class="st1" d="m273.5 143.7c-32.9 24.3-80.7 37.2-121.8 37.2-57.6 0-109.5-21.3-148.7-56.7-3.1-2.8-0.3-6.6 3.4-4.4 42.4 24.6 94.7 39.5 148.8 39.5 36.5 0 76.6-7.6 113.5-23.2 5.5-2.5 10.2 3.6 4.8 7.6z"/><path class="st1" d="m287.2 128.1c-4.2-5.4-27.8-2.6-38.5-1.3-3.2 0.4-3.7-2.4-0.8-4.5 18.8-13.2 49.7-9.4 53.3-5 3.6 4.5-1 35.4-18.6 50.2-2.7 2.3-5.3 1.1-4.1-1.9 4-9.9 12.9-32.2 8.7-37.5z"/></g><g fill="#232f3e" stroke="#232f3e" stroke-linejoin="round" stroke-width=".74513"><path d="m153.81-40.289c-3.6976 0.28033-8.1498-0.11391-11.067 2.577-3.0022 8.8961-4.5321 18.244-6.8518 27.34-2.9201 12.259-5.6565 24.566-8.9491 36.73-5.2536-20.291-10.163-40.687-15.232-61.011-0.90342-3.6317-4.6852-5.5399-8.2236-5.245-3.8893 0.15372-7.9649-0.41391-11.738 0.62617-2.3494 1.9736-0.55519 5.4538-0.19622 7.9324 6.735 23.954 14.481 47.618 21.411 71.505 1.417 3.5965 1.6734 7.9328 4.3268 10.907 3.6891 2.58 8.5828 1.7182 12.828 1.9739 2.6593 0.06642 6.2398-0.04161 7.2442-3.0784 4.2054-10.91 5.7009-22.582 8.6296-33.851 2.2355-9.5116 4.4317-19.077 6.818-28.523 4.9046 19.466 9.3424 39.071 13.988 58.567 0.73883 3.3482 3.1208 6.8672 6.9496 6.7234 4.5964-0.14874 9.5478 1.6741 13.913-0.45574 2.4297-2.3564 2.694-6.1117 3.9676-9.1169 6.8266-22.014 14.008-43.927 20.68-65.976 1.6275-4.8011 4.1791-9.7853 3.3278-14.988-1.453-3.1151-5.3376-2.1352-8.0664-2.3069-3.7219 0.24058-8.74-0.71799-11.146 2.9148-2.2784 5.2098-3.2797 10.911-5.0078 16.324-4.3869 15.973-8.1228 32.213-12.383 48.158-5.083-20.367-9.622-40.858-14.248-61.332-0.50465-2.8764-2.4159-5.6985-5.5444-5.9794-1.7844-0.35999-3.6139-0.42967-5.4295-0.41713z" style="paint-order:fill markers stroke"/><path d="m45.718-42.123c-10.512 0.1016-21.27 2.2248-30.455 7.4796-3.017 2.2051-2.046 6.5378-2.1928 9.7515-0.19482 1.8396 0.78661 4.2929 3.0361 3.8138 5.5474-1.122 10.663-3.8555 16.267-4.8523 7.6792-1.6009 16.148-2.1293 23.489 1.1541 5.9131 2.9104 7.4649 10.106 7.4834 16.108 0.08392 2.7943 0.03713 5.6626 0.05445 8.4888-12-2.7147-24.935-4.4563-36.86-0.50191-6.776 2.3146-12.819 7.1471-16.27 13.442-3.6317 6.9246-3.8661 15.305-1.8404 22.745 2.9856 10.595 13.693 18.065 24.604 17.746 5.9056 0.11245 11.985-0.03164 17.441-2.5848 5.7296-2.1869 10.308-6.37 14.7-10.505 2.1905 4.0281 4.2126 8.7529 8.294 11.198 2.9198 1.2191 5.4446-1.6592 7.8542-2.8563 2.0931-1.5472 5.8222-3.145 4.9638-6.3878-1.3108-4.4293-4.4614-8.3781-4.3561-13.158-0.90902-15.474-0.0044-31.122-1.3965-46.606-1.3332-9.5055-7.6416-18.45-16.869-21.697-5.6958-2.2035-11.882-2.8083-17.947-2.7768zm0.25967 52.238c6.0447-0.02235 11.98 1.0018 17.894 2.1636-0.32059 6.6068 0.01391 14.15-5.0198 19.253-5.3855 6.0891-14.195 8.0018-21.988 7.4554-5.1835-0.45981-9.8728-4.4915-10.505-9.7597-1.024-5.6879 0.07561-12.63 5.3978-15.883 4.2089-2.641 9.3506-3.1758 14.221-3.2295z" style="paint-order:fill markers stroke"/><path d="m253.48-43.181c-12.328 0.06542-25.664 5.826-31.171 17.434-2.6561 5.733-2.7399 12.549-0.88651 18.53 2.3278 6.5983 7.6584 11.918 13.723 15.212 9.4436 4.596 20.129 6.2627 29.369 11.051 3.2415 1.7562 4.945 5.6981 4.0759 9.311-1.0081 6.436-8.1552 9.4508-13.936 9.4159-7.495 0.26415-15.155 0.2008-22.257-2.5716-3.5766-0.9228-7.0641-2.8704-10.794-2.8897-2.8052 0.71167-2.2332 4.3889-2.3741 6.574-0.13779 3.5233 0.20692 7.8846 3.8678 9.5847 6.6632 3.7478 14.441 4.8271 21.884 6.0313 8.32 0.84102 16.99 0.0068 24.776-3.1478 8.7827-3.5999 16.595-11.06 18.178-20.726 1.0564-7.249 0.46408-15.536-4.9439-21.044-3.3763-4.2017-8.0695-7.006-13.124-8.7236-8.4426-3.5175-17.57-5.3933-25.657-9.7354-5.436-2.9387-5.9439-11.692-0.66847-15.01 5.6729-3.3212 12.52-2.7061 18.828-2.4309 6.0566 0.37991 11.605 3.4522 17.571 4.4317 2.6128 0.36279 3.4328-2.6678 3.3912-4.7051 0.51022-3.74 0.26614-8.3343-3.2912-10.564-6.0536-4.1501-13.682-4.8862-20.768-5.8051-1.9256-0.16848-3.8592-0.25121-5.7921-0.22408z" style="paint-order:fill markers stroke"/></g></svg>
