<?xml version="1.0" encoding="UTF-8"?>
<svg version="1.1" xmlns="http://www.w3.org/2000/svg" width="506" height="500">
<path d="M0 0 C9.65331127 8.91331829 18.89455517 18.20441539 26.83447266 28.69384766 C27.24971191 29.23267578 27.66495117 29.77150391 28.09277344 30.32666016 C39.43819955 45.08439999 48.96028338 60.83267395 56.83447266 77.69384766 C57.13305176 78.32436035 57.43163086 78.95487305 57.73925781 79.60449219 C84.69870343 136.94657188 86.5794903 203.95653281 65.97314453 263.5625 C54.99574422 293.75035087 38.72186036 321.80021931 16.89697266 345.44384766 C15.08390171 347.42174323 13.36408252 349.44581582 11.64697266 351.50634766 C-21.89015823 389.72486294 -72.80641302 414.59441822 -122.16552734 423.69384766 C-123.03918945 423.85755859 -123.91285156 424.02126953 -124.81298828 424.18994141 C-174.71750968 433.06674712 -227.75156053 424.69139965 -273.16552734 402.69384766 C-273.85533691 402.36191406 -274.54514648 402.02998047 -275.25585938 401.68798828 C-311.65999355 383.92819836 -342.4739179 356.29719527 -366.16552734 323.69384766 C-366.81618164 322.81237061 -366.81618164 322.81237061 -367.47998047 321.91308594 C-404.34330447 271.54002552 -417.67513542 205.21346738 -408.70458984 144.05712891 C-401.94586715 101.88857642 -385.2329275 61.87185325 -358.16552734 28.69384766 C-357.38564453 27.71029297 -356.60576172 26.72673828 -355.80224609 25.71337891 C-343.8185356 11.00863928 -330.19406942 -2.98982616 -314.796875 -14.12353516 C-313.13613817 -15.32745751 -311.50017968 -16.56032384 -309.86474609 -17.79833984 C-275.67534383 -43.33980525 -233.53506663 -58.99398621 -191.16552734 -63.30615234 C-190.18970703 -63.41701172 -189.21388672 -63.52787109 -188.20849609 -63.64208984 C-119.37048194 -70.31838479 -51.02161427 -46.00356224 0 0 Z " fill="#289FE9" transform="translate(417.16552734375,69.30615234375)"/>
<path d="M0 0 C9.65331127 8.91331829 18.89455517 18.20441539 26.83447266 28.69384766 C27.24971191 29.23267578 27.66495117 29.77150391 28.09277344 30.32666016 C39.43819955 45.08439999 48.96028338 60.83267395 56.83447266 77.69384766 C57.13305176 78.32436035 57.43163086 78.95487305 57.73925781 79.60449219 C84.69870343 136.94657188 86.5794903 203.95653281 65.97314453 263.5625 C54.99574422 293.75035087 38.72186036 321.80021931 16.89697266 345.44384766 C15.08390171 347.42174323 13.36408252 349.44581582 11.64697266 351.50634766 C-21.89015823 389.72486294 -72.80641302 414.59441822 -122.16552734 423.69384766 C-123.03918945 423.85755859 -123.91285156 424.02126953 -124.81298828 424.18994141 C-174.71750968 433.06674712 -227.75156053 424.69139965 -273.16552734 402.69384766 C-273.85533691 402.36191406 -274.54514648 402.02998047 -275.25585938 401.68798828 C-311.65999355 383.92819836 -342.4739179 356.29719527 -366.16552734 323.69384766 C-366.81618164 322.81237061 -366.81618164 322.81237061 -367.47998047 321.91308594 C-404.34330447 271.54002552 -417.67513542 205.21346738 -408.70458984 144.05712891 C-401.94586715 101.88857642 -385.2329275 61.87185325 -358.16552734 28.69384766 C-357.38564453 27.71029297 -356.60576172 26.72673828 -355.80224609 25.71337891 C-343.8185356 11.00863928 -330.19406942 -2.98982616 -314.796875 -14.12353516 C-313.13613817 -15.32745751 -311.50017968 -16.56032384 -309.86474609 -17.79833984 C-275.67534383 -43.33980525 -233.53506663 -58.99398621 -191.16552734 -63.30615234 C-190.18970703 -63.41701172 -189.21388672 -63.52787109 -188.20849609 -63.64208984 C-119.37048194 -70.31838479 -51.02161427 -46.00356224 0 0 Z M-311.16552734 2.69384766 C-311.7570459 3.18385254 -312.34856445 3.67385742 -312.95800781 4.17871094 C-324.51191517 13.77662971 -334.81058453 23.90218932 -344.16552734 35.69384766 C-345.14972656 36.87720703 -345.14972656 36.87720703 -346.15380859 38.08447266 C-384.04647 83.95053977 -400.42271698 144.7601007 -395.22021484 203.54443359 C-393.34860547 222.04784443 -389.52934664 240.21475593 -383.16552734 257.69384766 C-382.74279541 258.87092285 -382.74279541 258.87092285 -382.31152344 260.07177734 C-374.9420413 280.29614302 -365.09216556 299.46143666 -352.16552734 316.69384766 C-351.49505371 317.59538574 -351.49505371 317.59538574 -350.81103516 318.51513672 C-344.14079414 327.42319797 -336.85912886 335.66156962 -329.16552734 343.69384766 C-328.45654297 344.44408203 -327.74755859 345.19431641 -327.01708984 345.96728516 C-321.79128726 351.3637262 -316.04965637 356.03622574 -310.16552734 360.69384766 C-309.18841797 361.48791016 -308.21130859 362.28197266 -307.20458984 363.10009766 C-298.35438931 370.14458977 -288.95550257 376.04310186 -279.16552734 381.69384766 C-278.12936279 382.29543701 -278.12936279 382.29543701 -277.07226562 382.90917969 C-224.682412 412.97058619 -161.83929032 418.25902102 -103.93505859 403.38525391 C-79.91844027 396.82169132 -56.47307414 386.11306759 -36.16552734 371.69384766 C-35.24384766 371.04673828 -34.32216797 370.39962891 -33.37255859 369.73291016 C-15.12347935 356.70888463 1.82735693 341.57046786 15.32666016 323.60400391 C16.83447266 321.69384766 16.83447266 321.69384766 18.33447266 320.23681641 C21.83803972 316.63288675 24.21085514 311.95151709 26.83447266 307.69384766 C27.18848145 307.12553223 27.54249023 306.5572168 27.90722656 305.97167969 C33.8046833 296.48719083 39.12038129 286.82075934 43.83447266 276.69384766 C44.33527344 275.61973633 44.33527344 275.61973633 44.84619141 274.52392578 C69.12240642 221.64642297 71.27503757 158.95709282 51.60693359 104.26000977 C45.55853175 88.09790791 38.47406406 73.20413374 29.25244141 58.61962891 C27.7338793 56.2099641 26.42794929 53.87891451 25.15087891 51.31884766 C23.53244085 48.09157652 21.41728128 46.21795608 18.83447266 43.69384766 C17.73338202 42.31197891 16.65171865 40.91451945 15.58447266 39.50634766 C12.2656398 35.16300552 8.69621948 31.11875904 5.00634766 27.08837891 C3.14490107 25.03610056 1.36158896 22.94346937 -0.41552734 20.81884766 C-17.03661647 1.82331722 -39.01162437 -12.60781089 -61.16552734 -24.30615234 C-61.78492188 -24.63824707 -62.40431641 -24.9703418 -63.04248047 -25.3125 C-141.54480022 -66.81306914 -243.66569921 -53.74812151 -311.16552734 2.69384766 Z " fill="#EEF1EC" transform="translate(417.16552734375,69.30615234375)"/>
<path d="M0 0 C1.75900353 1.0742988 3.4971779 2.18309215 5.21875 3.31640625 C7.36930109 4.56912999 9.52314743 5.81620827 11.6796875 7.05859375 C13.98655501 8.43273009 16.29124117 9.81002987 18.59375 11.19140625 C19.74719305 11.88054786 20.90083822 12.56935127 22.0546875 13.2578125 C22.62358704 13.59725891 23.19248657 13.93670532 23.77862549 14.28643799 C31.32299923 18.78708561 31.32299923 18.78708561 38.8828125 23.26171875 C39.83881348 23.82648926 40.79481445 24.39125977 41.77978516 24.97314453 C44.24015709 26.42391485 44.24015709 26.42391485 47.21875 27.31640625 C47.21875 47.11640625 47.21875 66.91640625 47.21875 87.31640625 C39.29875 91.27640625 39.29875 91.27640625 31.21875 95.31640625 C23.71772436 99.19749615 23.71772436 99.19749615 17.1875 104.3984375 C15.00424965 106.52537385 13.32957912 107.26537135 10.46875 108.25390625 C6.18838779 109.8322109 2.69380087 111.7866353 -0.9921875 114.4609375 C-2.78125 115.31640625 -2.78125 115.31640625 -4.640625 115.12890625 C-10.82503992 112.78153708 -16.95942178 109.70295346 -22.40625 105.94140625 C-24.57673307 104.12817828 -24.57673307 104.12817828 -26.78125 104.31640625 C-27.19375 103.86265625 -27.60625 103.40890625 -28.03125 102.94140625 C-29.72862514 101.12986353 -29.72862514 101.12986353 -32.34375 100.5234375 C-36.7468261 98.97735737 -40.53081289 96.75652453 -44.53125 94.37890625 C-45.29824219 93.93611328 -46.06523437 93.49332031 -46.85546875 93.03710938 C-47.95568359 92.38838867 -47.95568359 92.38838867 -49.078125 91.7265625 C-50.07344238 91.14080444 -50.07344238 91.14080444 -51.08886719 90.54321289 C-52.78125 89.31640625 -52.78125 89.31640625 -54.78125 86.31640625 C-55.02175903 83.71577454 -55.02175903 83.71577454 -55.00830078 80.55981445 C-55.00814972 79.37881668 -55.00799866 78.19781891 -55.00784302 76.98103333 C-54.99235916 75.06842964 -54.99235916 75.06842964 -54.9765625 73.1171875 C-54.9737326 71.81186569 -54.97090271 70.50654388 -54.96798706 69.16166687 C-54.96035747 65.6944511 -54.94071493 62.22740337 -54.9185791 58.76025391 C-54.89810605 55.22105177 -54.88898223 51.68182243 -54.87890625 48.14257812 C-54.8574683 41.20045188 -54.82334056 34.25843714 -54.78125 27.31640625 C-52.8379677 26.20933735 -50.89458872 25.10243816 -48.95117188 23.99560547 C-48.37252129 23.66604292 -47.7938707 23.33648037 -47.19768524 22.99693108 C-44.13024843 21.25054456 -41.06072182 19.50803298 -37.98632812 17.77392578 C-32.00954414 14.39123065 -26.12321723 10.94834819 -20.375 7.18359375 C-18.91827881 6.25003052 -18.91827881 6.25003052 -17.43212891 5.29760742 C-15.62115061 4.12740007 -13.83017269 2.92546541 -12.06396484 1.6887207 C-7.54538363 -1.1911514 -4.99896772 -2.40200955 0 0 Z " fill="#F4F5F2" transform="translate(259.78125,204.68359375)"/>
<path d="M0 0 C0.66 0 1.32 0 2 0 C2.61887085 0.63276855 2.61887085 0.63276855 3.25024414 1.27832031 C5.58143619 3.5721066 8.14851951 4.93982184 10.99609375 6.546875 C11.58487808 6.88116516 12.17366241 7.21545532 12.7802887 7.55987549 C14.6634587 8.6278628 16.55031018 9.68913507 18.4375 10.75 C20.28490879 11.79415593 22.13152456 12.83970133 23.97793579 13.88562012 C25.19520843 14.57466457 26.413122 15.26257801 27.63168335 15.94934082 C30.61012581 17.63075285 33.57466918 19.3307245 36.51611328 21.07617188 C38.13428955 22.03620117 38.13428955 22.03620117 39.78515625 23.015625 C40.74429932 23.59086914 41.70344238 24.16611328 42.69165039 24.75878906 C44.85676746 26.15786104 44.85676746 26.15786104 47 26 C48.00423424 26.99574775 49.00362534 27.99638775 50 29 C51.82890635 30.09469177 51.82890635 30.09469177 53.8125 31 C54.51375 31.33902344 55.215 31.67804688 55.9375 32.02734375 C56.618125 32.34832031 57.29875 32.66929687 58 33 C63.72640139 35.70113273 63.72640139 35.70113273 65.2265625 37.33984375 C68.33498233 40.24970813 72.26318733 42.03211897 75.99414062 44.0390625 C79.19122147 45.8043632 80.93707807 46.9056171 83 50 C81.38113585 51.67262717 79.7547271 53.33795537 78.125 55 C77.22007812 55.928125 76.31515625 56.85625 75.3828125 57.8125 C73 60 73 60 71 60 C71 60.66 71 61.32 71 62 C70.34 62 69.68 62 69 62 C69 62.66 69 63.32 69 64 C67 65.625 67 65.625 65 67 C58.34456355 63.35834609 58.34456355 63.35834609 56.4375 61.375 C54.30630224 59.33646301 51.77480988 58.88557762 49 58 C48.34 57.34 47.68 56.68 47 56 C46.071875 55.54625 45.14375 55.0925 44.1875 54.625 C41 53 41 53 38.375 50.875 C36.03061218 49.02416751 34.80622222 48.65478519 32 48 C31.54625 47.525625 31.0925 47.05125 30.625 46.5625 C29.00489624 44.77135973 29.00489624 44.77135973 26.1875 44.125 C22.3546325 42.77222323 20.10614662 40.58845552 17 38 C15.00458132 37.31974363 13.00382009 36.65509503 11 36 C7.5999218 34.10596244 4.29490676 32.07071215 1 30 C0.13375 30.61875 -0.7325 31.2375 -1.625 31.875 C-4.76774331 33.85376431 -7.49236094 34.88393303 -11 36 C-11.99 36.99 -11.99 36.99 -13 38 C-16.32469427 40.38510676 -19.00383014 42.14367789 -23 43 C-23.66 43.66 -24.32 44.32 -25 45 C-27.53040082 46.33358962 -30.10575529 47.55041822 -32.6875 48.78125 C-35.10896902 49.91172409 -35.10896902 49.91172409 -37 52 C-38.97999626 53.03834199 -40.99770336 53.96529482 -43.02734375 54.90234375 C-45.07402185 56.04118839 -46.35759688 57.35308479 -48 59 C-49.3921875 59.433125 -49.3921875 59.433125 -50.8125 59.875 C-53.70850351 60.89711889 -54.95391509 61.6233927 -57.1875 63.5625 C-60 66 -60 66 -63 67 C-63.79664063 66.19175781 -64.59328125 65.38351563 -65.4140625 64.55078125 C-66.48423795 63.47121829 -67.55455821 62.39179887 -68.625 61.3125 C-69.14707031 60.78205078 -69.66914063 60.25160156 -70.20703125 59.70507812 C-73.64737462 56.24349806 -77.2059236 53.07058135 -81 50 C-79.97533355 47.10897679 -79.30379066 46.15670214 -76.53125 44.7265625 C-75.5309375 44.36304688 -74.530625 43.99953125 -73.5 43.625 C-66.89331854 41.05396613 -60.07770735 38.07770735 -55 33 C-52.46959918 31.66641038 -49.89424471 30.44958178 -47.3125 29.21875 C-44.89103098 28.08827591 -44.89103098 28.08827591 -43 26 C-42.01 25.67 -41.02 25.34 -40 25 C-39.34 24.34 -38.68 23.68 -38 23 C-36.33333333 22.33333333 -34.66666667 21.66666667 -33 21 C-32.34 20.34 -31.68 19.68 -31 19 C-30.01 18.67 -29.02 18.34 -28 18 C-27.34 17.34 -26.68 16.68 -26 16 C-24.22719331 15.06739974 -22.43158305 14.17785802 -20.625 13.3125 C-9.02624334 8.24334196 -9.02624334 8.24334196 0 0 Z " fill="#F2F4F1" transform="translate(254,124)"/>
<path d="M0 0 C0.51162712 12.79468581 0.90153019 25.5869117 1.13986778 38.38977242 C1.25432258 44.33662197 1.40922245 50.27643891 1.65966797 56.21923828 C3.28522745 95.81647873 3.28522745 95.81647873 -2.03598022 103.44891357 C-6.98670831 108.51770486 -12.64774628 111.04170181 -19.33972168 113.12554932 C-22.93418357 114.30707218 -25.59576159 116.03106547 -28.72265625 118.1484375 C-30.50134032 119.22604718 -32.28122981 120.30167053 -34.0625 121.375 C-35.97786952 122.53775228 -37.89323414 123.70051264 -39.80859375 124.86328125 C-42.91946459 126.74648826 -46.03564519 128.61999608 -49.16015625 130.48046875 C-49.75884521 130.84027832 -50.35753418 131.20008789 -50.97436523 131.57080078 C-52.471898 132.47051652 -53.97398047 133.36264869 -55.4765625 134.25390625 C-58.12386743 135.94214518 -58.12386743 135.94214518 -60.2734375 138.52734375 C-63 141 -63 141 -72 144 C-72 134.1 -72 124.2 -72 114 C-69.2775 112.494375 -66.555 110.98875 -63.75 109.4375 C-60.49732619 107.6297719 -57.2482079 105.81573864 -54 104 C-53.3512793 103.63825684 -52.70255859 103.27651367 -52.03417969 102.90380859 C-50.39348345 101.9851825 -48.75898121 101.05551784 -47.125 100.125 C-46.22007812 99.61195313 -45.31515625 99.09890625 -44.3828125 98.5703125 C-41.950656 97.08551108 -41.950656 97.08551108 -40.0625 95.0390625 C-37.56255182 92.56752283 -34.91921293 91.00023544 -31.875 89.25 C-30.82054687 88.63640625 -29.76609375 88.0228125 -28.6796875 87.390625 C-26 86 -26 86 -24 86 C-24.00666183 85.17980881 -24.01332367 84.35961761 -24.02018738 83.51457214 C-24.08026878 75.78954867 -24.12595913 68.06463829 -24.15543652 60.33944225 C-24.17110056 56.36771373 -24.19235199 52.39617807 -24.22631836 48.42456055 C-24.25888596 44.59256911 -24.27684745 40.76076332 -24.28463173 36.92864418 C-24.29017996 35.46577341 -24.30101425 34.00291293 -24.31719017 32.54012108 C-24.33893079 30.49291304 -24.34196847 28.4464746 -24.34057617 26.39916992 C-24.34723801 25.23334885 -24.35389984 24.06752777 -24.36076355 22.86637878 C-24 20 -24 20 -22.61933899 18.17817688 C-21 17 -21 17 -18.75 15.75 C-12.94601756 12.05655663 -8.56745509 6.66346086 -4.359375 1.28515625 C-3 0 -3 0 0 0 Z " fill="#F2F3F1" transform="translate(373,230)"/>
<path d="M0 0 C0.53057259 0.40397664 1.06114517 0.80795328 1.60779572 1.22417164 C2.31379662 1.75837569 3.01979752 2.29257975 3.74719238 2.8429718 C4.44276497 3.37069844 5.13833755 3.89842508 5.8549881 4.44214344 C7.86829927 5.90434979 9.91992836 7.22022346 12.04492188 8.51245117 C17.72275151 12.39577854 22.20804189 16.35433393 23.71630859 23.29742432 C24.61130838 32.94436656 24.02134075 42.65635102 23.5 52.3125 C21.50504732 69.83470833 21.50504732 69.83470833 25.30935669 86.13134766 C28.68966255 89.40828577 32.60377833 90.94049375 37.04058838 92.32858276 C39.96706496 93.33137707 42.40818027 94.94369396 44.99609375 96.6171875 C46.80965715 97.70352356 48.62345371 98.78947049 50.4375 99.875 C51.35208984 100.42929687 52.26667969 100.98359375 53.20898438 101.5546875 C58.38517409 104.64184868 63.33266545 106.97551899 69 109 C71.69775391 110.15307617 71.69775391 110.15307617 74 112 C74.56762695 115.09448242 74.56762695 115.09448242 74.48828125 118.85546875 C74.48120651 119.51710526 74.47413177 120.17874176 74.46684265 120.86042786 C74.43888507 122.97060985 74.37615847 125.0781226 74.3125 127.1875 C74.28741824 128.61910225 74.26460483 130.05074617 74.24414062 131.48242188 C74.18905847 134.9891465 74.10278289 138.49431271 74 142 C67.94465918 140.12250298 62.84527392 137.27569644 57.375 134.125 C56.43398437 133.59519531 55.49296875 133.06539062 54.5234375 132.51953125 C53.6159375 132.00003906 52.7084375 131.48054687 51.7734375 130.9453125 C50.54246338 130.24172607 50.54246338 130.24172607 49.28662109 129.52392578 C46.86608894 127.91075456 45.02925211 126.07369987 43 124 C40.25600757 122.38711351 40.25600757 122.38711351 37.25 121 C36.19425781 120.48824219 35.13851562 119.97648437 34.05078125 119.44921875 C32.54064453 118.73185547 32.54064453 118.73185547 31 118 C26.84125508 116.02310854 23.26658699 114.28468442 20 111 C19.34 110.835 18.68 110.67 18 110.5 C15.54458029 109.88614507 14.76233218 108.76233218 13 107 C12.34 106.835 11.68 106.67 11 106.5 C8.49602029 105.87400507 7.7813997 104.84991507 6 103 C4.48579971 102.25299835 4.48579971 102.25299835 2.94100952 101.49090576 C0 99 0 99 -0.54710007 97.05600739 C-0.74090319 94.50557106 -0.74168373 92.01528938 -0.68115234 89.45800781 C-0.6820285 88.49182022 -0.68290466 87.52563263 -0.68380737 86.53016663 C-0.6796276 83.33699658 -0.6329555 80.14592795 -0.5859375 76.953125 C-0.57474679 74.73924914 -0.56620602 72.52535843 -0.56021118 70.3114624 C-0.53730333 64.48479175 -0.47836192 58.65901867 -0.4119873 52.83270264 C-0.35060772 46.88728987 -0.32320533 40.94173204 -0.29296875 34.99609375 C-0.22862166 23.33033483 -0.12621747 11.66524205 0 0 Z " fill="#F2F4F1" transform="translate(138,231)"/>
</svg>
