<?xml version="1.0" encoding="UTF-8"?>
<svg width="400" height="400" version="1.1" xmlns="http://www.w3.org/2000/svg">
 <defs>
  <clipPath id="clipPath1491">
   <rect x="-125.53" y="-110" width="401.07" height="401.06" rx="42.371" ry="42.371" fill="#221a52" stroke-width="0" style="paint-order:fill markers stroke"/>
  </clipPath>
  <clipPath id="clipPath1495">
   <rect x="-.52576" width="401.07" height="401.06" rx="42.371" ry="42.371" fill="#221a52" stroke-width="0" style="paint-order:fill markers stroke"/>
  </clipPath>
 </defs>
 <g transform="matrix(.97525 0 0 .97525 4.9497 4.9497)" stroke-width="1.0514">
  <path d="m0 0h400v400h-400v-400z" clip-path="url(#clipPath1495)" fill="#64a637"/>
  <path transform="translate(125,110)" d="m0 0c4.4025 1.4675 8.0919 2.9221 12.188 4.9739 0.59316 0.29572 1.1863 0.59145 1.7974 0.89614 1.9733 0.98501 3.9437 1.9757 5.9141 2.9664 1.4194 0.70999 2.839 1.4196 4.2588 2.1289 3.8443 1.9219 7.6861 3.8486 11.527 5.7763 4.0184 2.0155 8.0391 4.0264 12.06 6.0378 7.6088 3.8075 15.215 7.619 22.821 11.432 8.661 4.3417 17.324 8.6788 25.988 13.016 17.818 8.9192 35.632 17.845 53.445 26.773v32c-13.597 7.21-27.279 14.214-41.047 21.09-2.0702 1.0354-4.1402 2.071-6.2103 3.1066-4.3088 2.1551-8.6184 4.3089-12.928 6.4615-5.4545 2.7244-10.907 5.4524-16.359 8.1814-4.267 2.1353-8.535 4.2687-12.803 6.4016-2.0076 1.0035-4.0149 2.0075-6.022 3.0122-11.523 5.7666-23.082 11.443-34.722 16.968-5.3458 2.5391-10.644 5.1467-15.901 7.8652-2.0062 0.91406-2.0062 0.91406-4.0062 0.91406v-33c7.1578-3.5895 14.316-7.1785 21.476-10.764 3.3368-1.671 6.6733-3.3427 10.009-5.0163 13.829-6.9379 27.674-13.827 41.651-20.463 9.1764-4.362 18.247-8.925 27.305-13.525 2.0558-1.0429 4.114-2.0809 6.1726-3.1184 0.61749-0.31547 1.235-0.63094 1.8712-0.95598 4.289-2.1573 4.289-2.1573 6.5156-2.1573v-2c-0.76441-0.21785-1.5288-0.4357-2.3164-0.66016-5.0895-1.8512-9.8016-4.3184-14.621-6.7773-7.7126-3.8954-15.441-7.7383-23.25-11.438-13.891-6.5898-27.683-13.384-41.485-20.158-11.063-5.4247-22.163-10.753-33.327-15.967v-34z" clip-path="url(#clipPath1491)" fill="#f2f3f2"/>
 </g>
</svg>
