<?xml version="1.0" encoding="UTF-8"?>
<svg width="285" height="258" version="1.1" xmlns="http://www.w3.org/2000/svg">
 <path transform="translate(92.386 3.5801)" d="m0 0 3.7376-0.025665c3.3681-0.019335 6.7356-0.025151 10.104-0.023252 2.8203 1.2013e-4 5.6405-0.0084613 8.4608-0.016778 6.6594-0.019204 13.319-0.022129 19.978-0.015359 6.849 0.006635 13.697-0.016208 20.546-0.053314 5.8984-0.030786 11.797-0.042047 17.695-0.038163 3.5148 0.002059 7.0292-0.003275 10.544-0.027893 3.925-0.026584 7.8492-0.012472 11.774 0.005112l3.4847-0.040192c9.8014 0.10166 17.543 3.3051 24.788 9.9586 2.7534 3.1105 4.4642 6.6618 6.252 10.384 0.85066 1.6919 1.7049 3.3819 2.5625 5.0703l1.3242 2.6182c13.58 24.682 27.748 46.473 40.059 69.262 1.0856 1.9657 2.2187 3.8652 3.4214 5.76 5.8973 9.9861 6.8819 20.232 4.8828 31.602-1.4509 5.0083-3.9845 9.3538-6.6816 13.783-1.4917 2.5082-2.8689 5.0628-4.2402 7.6387-8.2439 15.814-18.891 33.522-27.703 48.078-4.1317 6.9483-8.2115 13.887-11.938 21.062-6.7494 12.733-14.099 19.998-28.175 24.578-4.9596 1.3063-9.6707 1.4264-14.776 1.3928l-3.277 0.0261c-3.5363 0.0225-7.0719 0.016-10.608 7e-3 -2.4828 5e-3 -4.9656 0.0115-7.4484 0.0188-5.1895 0.0104-10.379 6e-3 -15.568-9e-3 -6.6192-0.0172-13.238 6e-3 -19.857 0.0415-5.1236 0.0221-10.247 0.0205-15.371 0.0122-2.439-8.1e-4 -4.878 6e-3 -7.317 0.0208-16.503 0.0849-31.417-0.0798-44.474-11.655-4.2667-4.981-6.9437-10.648-9.8086-16.512-3.0859-6.2827-6.631-12.277-10.195-18.297-9.039-16.717-20.64-34.626-28.055-48.43-1.2527-2.2912-2.5316-4.5616-3.8281-6.8281l-1.2454-2.1843c-0.81356-1.4243-1.6309-2.8465-2.4526-4.2661-3.6355-6.3765-4.1848-11.052-4.2317-18.229l-0.0625-2.3438c-0.0555-8.269 2.571-14.15 7.0625-21.031 6.2173-10.006 11.085-20.799 16.562-30.25 5.2851-7.6342 10.051-16.183 13.902-22.809l2.0352-3.4414c5.2909-8.9706 10.374-17.973 14.699-27.457 3.3698-7.3326 11.537-13.275 18.835-16.294 4.7488-1.3394 9.7039-1.0571 14.601-1.0447z" fill="#6eb440"/>
 <path transform="translate(187,60)" d="m0 0c15.998 10.154 26.652 26.723 31.344 44.816 4.5738 22.188-0.069722 41.393-10.344 61.184-10.777 13.618-28.044 26.177-43.953 31.219-21.662 5.5543-42.91 2.0178-62.185-9.0684-18.501-11.431-29.659-30.262-34.674-51.025-3.8039-19.806 0.24934-39.096 10.812-56.125 4.3352-6.284 9.434-11.793 15-17l2.375-2.4375c3.8509-2.2922 7.2546-2.346 11.625-1.5625 5.4634 2.9268 5.4634 2.9268 7 6-0.03574 7.0393-4.7925 11.295-8.1875 15.625-10.557 9.1826-16.613 21.862-18.065 35.795-0.23078 3.7552-0.32999 6.6163-0.48999 10.216-1.0376 12.962 17.717 37.15 26.914 43.719 13.974 8.1257 29.366 8.5233 45.016 5.582 20.207-7.5339 34.279-25.787 38.305-44.418 2.3699-16.426-0.75172-30.871-10.492-44.52-3.6773-4.2134-7.6186-7.9064-12-11.375-2.8951-2.3523-2.9704-4.3589-3.375-8 0.375-3.625 0.375-3.625 2.6875-6.5 4.1541-3.2846 7.7361-3.9086 12.688-2.125z" fill="#fbfdfa"/>
 <path transform="translate(145.59 43.332)" d="m0 0c4.1871 1.1605 6.2098 4.0792 8.4102 7.668 1.4704 2.9408 1.1436 5.5657 1.1611 8.8489 0.0049649 0.70427 0.0099298 1.4085 0.015045 2.1342 0.014631 2.3351 0.021426 4.6701 0.026947 7.0052 0.0057513 1.6218 0.011509 3.2437 0.017273 4.8655 0.010513 3.4038 0.016354 6.8076 0.019836 10.211 0.0054808 4.358 0.029498 8.7158 0.057972 13.074 0.018641 3.3518 0.023833 6.7035 0.025364 10.055 0.0030245 1.6063 0.011046 3.2127 0.024185 4.819 0.017089 2.2502 0.015173 4.4996 0.0086899 6.7498 0.0036456 1.2797 0.0072913 2.5594 0.011047 3.8779-0.48241 4.4096-2.0794 6.9225-4.9925 10.172-3.7468 1.8734-7.2816 1.9665-11.375 1.1875-3.0688-1.719-5.4036-3.8071-7-7-0.12388-2.4088-0.18876-4.79-0.20874-7.2002-0.0097838-0.74168-0.019568-1.4834-0.029648-2.2475-0.029969-2.4601-0.051345-4.9202-0.070206-7.3804-0.0065718-0.84018-0.013144-1.6804-0.019915-2.546-0.032602-4.4483-0.057049-8.8967-0.076521-13.345-0.017807-3.6804-0.052615-7.36-0.10254-11.04-0.060217-4.4439-0.090939-8.8871-0.10063-13.331-0.0085545-1.6921-0.027373-3.3842-0.056744-5.0761-0.038968-2.3727-0.039944-4.7426-0.032076-7.1156-0.020001-0.69529-0.040001-1.3906-0.060608-2.1069 0.059989-4.0428 0.90537-6.206 3.641-9.0412 3.4767-3.1878 6.068-3.4965 10.706-3.2376z" fill="#FCFDFC"/>
</svg>
