<?xml version="1.0" encoding="UTF-8"?>
<svg width="171" height="191" version="1.1" xmlns="http://www.w3.org/2000/svg">
 <path transform="translate(93,1)" d="m0 0c6.6198 2.8161 12.676 6.7423 18.739 10.582 2.5943 1.6268 5.2435 3.1091 7.9487 4.543 5.0238 2.7076 10.013 5.4761 15 8.25 8.1667 4.9916 15.805 9.4363 23.758 13.68 5.1726 2.8509 8.8427 5.5214 11.555 10.945 0.10903 2.8721 0.15733 5.7203 0.16113 8.593l0.01504 2.6957c0.01464 2.9519 0.02143 5.9038 0.02695 8.8558 0.0058 2.0478 0.01151 4.0957 0.01727 6.1435 0.01052 4.2983 0.01635 8.5966 0.01984 12.895 0.0055 5.5082 0.02951 11.016 0.05797 16.524 0.01862 4.2319 0.02383 8.4638 0.02536 12.696 3e-3 2.0306 0.01106 4.0612 0.02419 6.0917 0.01705 2.8416 0.01518 5.6827 0.0087 8.5243l0.02792 2.5429c-0.03334 4.6574-0.40983 7.6321-3.3844 11.438-11.416 8.763-24.658 15.662-36.312 22.5l-3.248 1.8789c-4.7342 2.2775-9.1158 5.2787-13.713 7.7226-6.0697 2.9814-11.934 6.112-17.668 9.6992-5.0711 2.9541-10.365 2.9522-16.059 2.1992-6.9348-2.576-13.171-6.643-19.449-10.508-2.7314-1.5979-5.5162-2.9866-8.3633-4.3672-12.574-6.6399-24.821-14.853-36.062-20.75l-2.3945-1.2539-2.3477-1.2852-2.1128-1.1392c-3.8091-2.8472-7.575-6.0621-8.826-10.804-0.20718-2.3948-0.23263-4.7255-0.18863-7.1289l-0.02213-2.7226c-0.01614-2.9532 0.01094-5.9042 0.04019-8.8572 1e-3 -2.0607-1e-6 -4.1214-3e-3 -6.1821 1.79e-4 -4.3116 0.02097-8.6224 0.05722-12.934 0.0454-5.5205 0.04645-11.04 0.03296-16.56-0.0067-4.2526 0.0066-8.505 0.02626-12.758 0.0077-2.0353 0.01001-4.0707 0.0068-6.106-7.43e-4 -2.846 0.02456-5.6907 0.057-8.5365l-0.01501-2.5365c0.096483-5.3151 1.067-8.3363 4.5643-12.571 1.967-1.5674 1.967-1.5674 4.0039-2.7031l2.2441-1.2812 2.3145-1.2656c17.453-10.108 36.194-21.105 52.34-29.878l2.605-1.4111 2.4131-1.3015c1.6357-0.91217 3.2238-1.9099 4.79-2.9368 5.3164-2.8396 11.543-2.6736 17.289-1.2227z" fill="#1b6eda"/>
 <path transform="translate(86,54.625)" d="m0 0 3.3672 0.0039062c7.8419 0.083032 15.509 0.55643 22.758 3.7461 2.7312 3.8237 2.3892 7.2485 2.3438 11.848-0.46875 2.7773-0.46875 2.7773-1.7969 4.6289-2.821 1.9378-5.3457 1.4256-8.6719 1.1484l-3.1523-1.0078c-4.5108-1.1632-8.5315-1.2514-13.16-1.1797l-2.4551 2e-3c-4.2513-0.074697-3.4648 0.37471-7.446 1.6349l-0.78647 4.5506c4.61 2.1088 9.2345 4.1246 13.973 5.9297l2.5371 0.97266c1.7027 0.64875 3.4084 1.2894 5.1172 1.9219 7.3438 2.8424 14.119 6.2143 17.873 13.426 2.7178 7.1993 2.2994 14.553-0.39453 21.711-3.2195 5.9384-8.9539 8.8746-15.105 11.039-6.2908 1.5304-12.688 1.2243-19.125 1.25l-3.8438 0.0625c-7.4893 0.030884-15.14-0.025248-22.031-3.3125-3.1062-3.364-3.3618-5.5764-3.25-10.125l0.04687-3.1953c0.20313-2.6797 0.20313-2.6797 1.2031-4.6797 7.3024-0.1259 7.3024-0.1259 10.758 0.4978 3.2059 0.49665 6.2035 0.63151 9.4448 0.63501l3.4688 0.0039 3.5781-0.011712 3.625 0.01172 3.4531-0.0039 3.1533-0.0034c2.5148 0.039428 2.5148 0.039428 4.5186-1.1294-0.030061-2.4213-0.030061-2.4213-1-5-2.6209-1.6939-2.6209-1.6939-6-2.875l-1.8594-0.74194c-2.0403-0.81229-4.0897-1.598-6.1406-2.3831-2.2606-0.88038-4.5174-1.7687-6.7695-2.6704-1.4511-0.58038-2.9067-1.1497-4.3672-1.7061-6.0164-2.3908-11.46-5.5247-14.238-11.686-2.4643-6.2125-2.8461-12.921-0.89453-19.34 3.2086-7.0328 8.3406-9.996 15.332-12.742 5.272-1.5351 10.489-1.3506 15.938-1.2305z" fill="#fbfcfe"/>
</svg>
