<svg id="visual" viewBox="0 0 960 540" width="960" height="540" xmlns="http://www.w3.org/2000/svg" xmlns:xlink="http://www.w3.org/1999/xlink" version="1.1"><rect x="0" y="0" width="960" height="540" fill="#222831"></rect><defs><linearGradient id="grad1_0" x1="43.8%" y1="0%" x2="100%" y2="100%"><stop offset="14.444444444444446%" stop-color="#b1bc00" stop-opacity="1"></stop><stop offset="85.55555555555554%" stop-color="#b1bc00" stop-opacity="1"></stop></linearGradient></defs><defs><linearGradient id="grad1_1" x1="43.8%" y1="0%" x2="100%" y2="100%"><stop offset="14.444444444444446%" stop-color="#b1bc00" stop-opacity="1"></stop><stop offset="85.55555555555554%" stop-color="#222831" stop-opacity="1"></stop></linearGradient></defs><defs><linearGradient id="grad2_0" x1="0%" y1="0%" x2="56.3%" y2="100%"><stop offset="14.444444444444446%" stop-color="#b1bc00" stop-opacity="1"></stop><stop offset="85.55555555555554%" stop-color="#b1bc00" stop-opacity="1"></stop></linearGradient></defs><defs><linearGradient id="grad2_1" x1="0%" y1="0%" x2="56.3%" y2="100%"><stop offset="14.444444444444446%" stop-color="#222831" stop-opacity="1"></stop><stop offset="85.55555555555554%" stop-color="#b1bc00" stop-opacity="1"></stop></linearGradient></defs><g transform="translate(960, 0)"><path d="M0 346C-63 352.6 -125.9 359.3 -196.5 340.3C-267.1 321.4 -345.3 277 -374.1 216C-403 155 -382.5 77.5 -362 0L0 0Z" fill="#007a72"></path><path d="M0 173C-31.5 176.3 -63 179.6 -98.2 170.2C-133.5 160.7 -172.6 138.5 -187.1 108C-201.5 77.5 -191.2 38.8 -181 0L0 0Z" fill="#b1bc00"></path></g><g transform="translate(0, 540)"><path d="M0 -359C59.5 -349.5 118.9 -340.1 184 -318.7C249.1 -297.3 319.7 -264.1 362 -209C404.3 -153.9 418.1 -77 432 0L0 0Z" fill="#007a72"></path><path d="M0 -179.5C29.7 -174.8 59.5 -170 92 -159.3C124.5 -148.7 159.9 -132 181 -104.5C202.1 -77 209.1 -38.5 216 0L0 0Z" fill="#b1bc00"></path></g></svg>